<?xml version="1.0" encoding="UTF-8" standalone="no"?>
<!DOCTYPE svg PUBLIC "-//W3C//DTD SVG 1.1//EN" "http://www.w3.org/Graphics/SVG/1.1/DTD/svg11.dtd">
<svg width="370.00" height="370.00" viewBox="0.00 0.00 370.00 370.00" xmlns="http://www.w3.org/2000/svg" xmlns:xlink="http://www.w3.org/1999/xlink">
<g stroke-linecap="round" id="Layer_6">
<path d="M103.16,102.17 L163.68,182.15" fill="none" stroke="rgb(0, 0, 0)" stroke-width="5.60" stroke-opacity="1.00" stroke-linejoin="round"/>
<path d="M163.87,184.31 L163.87,346.89" fill="none" stroke="rgb(0, 0, 0)" stroke-width="5.60" stroke-opacity="1.00" stroke-linejoin="round"/>
<path d="M162.30,345.03 L95.49,345.03" fill="none" stroke="rgb(0, 0, 0)" stroke-width="5.60" stroke-opacity="1.00" stroke-linejoin="round"/>
<path d="M183.32,227.93 L183.32,182.15" fill="none" stroke="rgb(0, 0, 0)" stroke-width="5.60" stroke-opacity="1.00" stroke-linejoin="round"/>
<path d="M183.72,184.70 L254.26,100.41" fill="none" stroke="rgb(0, 0, 0)" stroke-width="5.60" stroke-opacity="1.00" stroke-linejoin="round"/>
<path d="M251.70,100.41 L124.18,100.41" fill="none" stroke="rgb(0, 0, 0)" stroke-width="5.60" stroke-opacity="1.00" stroke-linejoin="round"/>
<path d="M122.25,100.90 L119.77,97.25" fill="none" stroke="rgb(0, 0, 0)" stroke-width="5.60" stroke-opacity="1.00" stroke-linejoin="round"/>
<path d="M162.93,185.22 C164.69,190.76 169.10,204.77 171.75,213.24 C174.64,223.44 177.95,239.33 178.05,247.01 C178.08,250.85 176.86,256.58 175.75,258.05 C174.57,259.50 172.06,260.92 170.24,260.98 C168.94,261.01 164.37,260.57 162.22,260.81 C158.40,261.24 151.44,263.69 148.18,265.52 C144.62,267.56 138.84,272.43 136.36,275.51 C134.36,278.06 131.07,284.32 129.90,287.82 C128.75,291.39 127.76,298.65 128.00,301.71 C128.34,305.44 130.85,312.86 133.05,316.72 C134.99,320.08 139.74,325.97 142.72,328.18 C145.77,330.38 152.55,332.98 156.23,333.54 C159.75,334.04 166.99,333.11 170.56,331.92 C174.09,330.71 180.50,327.11 183.09,324.67 C185.82,322.03 189.83,316.22 190.83,312.96 C191.79,309.61 191.34,302.05 190.08,298.02 C188.76,293.95 184.66,287.57 181.77,285.33 C179.00,283.25 172.44,280.79 168.62,279.90 C165.08,279.13 159.11,279.71 155.87,281.37 C153.16,282.82 148.50,287.32 146.81,289.86 C145.91,291.27 144.84,294.13 144.58,295.93 C144.14,299.39 145.77,304.80 148.02,308.02 C149.20,309.68 149.64,310.44 149.64,310.45" fill="none" stroke="rgb(0, 0, 0)" stroke-width="5.60" stroke-opacity="1.00" stroke-linejoin="miter"/>
<path d="M120.35,91.64 L121.67,90.61" fill="none" stroke="rgb(0, 0, 0)" stroke-width="5.60" stroke-opacity="1.00" stroke-linejoin="round"/>
<path d="M123.42,90.47 L251.53,90.47" fill="none" stroke="rgb(0, 0, 0)" stroke-width="5.60" stroke-opacity="1.00" stroke-linejoin="round"/>
<path d="M219.21,87.98 L236.70,70.49" fill="none" stroke="rgb(0, 0, 0)" stroke-width="5.60" stroke-opacity="1.00" stroke-linejoin="round"/>
<path d="M258.74,48.45 L273.17,34.02" fill="none" stroke="rgb(0, 0, 0)" stroke-width="5.60" stroke-opacity="1.00" stroke-linejoin="round"/>
<path d="M247.80,43.42 C249.57,43.45 253.74,44.60 255.28,45.49 C256.90,46.47 259.72,49.46 260.76,51.14 C261.87,53.03 262.97,58.86 262.50,61.51 C262.28,62.64 261.32,65.62 260.76,66.58 C259.72,68.26 256.90,71.25 255.28,72.23 C253.74,73.12 249.57,74.27 247.80,74.30 C246.03,74.27 241.86,73.12 240.32,72.23 C238.71,71.25 235.88,68.26 234.84,66.58 C233.73,64.69 232.64,58.86 233.10,56.21 C233.32,55.09 234.28,52.10 234.84,51.14 C235.88,49.46 238.71,46.47 240.32,45.49 C241.86,44.60 246.03,43.45 247.80,43.42 Z" fill="none" stroke="rgb(0, 0, 0)" stroke-width="5.60" stroke-opacity="1.00" stroke-linejoin="round"/>
<path d="M119.71,93.92 C119.71,93.92 119.92,93.71 119.92,93.71 C119.92,94.31 119.92,94.90 119.92,95.50 C119.92,96.01 119.92,96.53 119.92,97.04" fill="none" stroke="rgb(0, 0, 0)" stroke-width="2.10" stroke-opacity="1.00" stroke-linejoin="round"/>
<path d="M120.34,94.76 C120.34,94.76 120.34,94.13 120.34,94.13 C120.34,94.69 120.34,95.15 120.34,95.50 C120.36,97.26 120.31,97.83 120.13,98.12" fill="none" stroke="rgb(0, 0, 0)" stroke-width="2.10" stroke-opacity="1.00" stroke-linejoin="round"/>
<path d="M119.92,93.71 C119.92,93.71 119.82,92.67 119.82,92.67 C119.82,92.67 119.71,99.27 119.71,99.27 C119.71,99.27 119.50,99.17 119.50,99.17" fill="none" stroke="rgb(0, 0, 0)" stroke-width="2.10" stroke-opacity="1.00" stroke-linejoin="round"/>
<path d="M119.92,95.18 C119.92,95.18 119.92,92.98 119.92,92.98 C119.84,93.03 119.73,93.31 119.71,93.82 C119.62,96.69 119.74,97.88 119.92,98.33" fill="none" stroke="rgb(0, 0, 0)" stroke-width="2.10" stroke-opacity="1.00" stroke-linejoin="round"/>
<path d="M119.92,93.71 C119.92,93.71 119.92,93.50 119.92,93.50 C119.88,95.26 119.88,96.41 119.92,96.96 C119.96,97.52 120.10,98.25 120.34,99.17 C120.33,97.94 120.14,96.81 119.61,95.08 C119.47,94.62 119.33,94.17 119.19,93.71 C119.19,93.71 120.03,99.90 120.03,99.90 C120.03,99.90 120.65,93.61 120.65,93.61 C120.65,93.61 120.55,98.85 120.55,98.85 C120.55,98.85 120.55,93.61 120.55,93.61 C120.55,93.61 120.76,99.06 120.76,99.06 C120.76,99.06 120.76,93.09 120.76,93.09 C120.76,93.09 120.03,97.80 120.03,97.80 C120.03,97.80 119.82,92.35 119.82,92.35 C119.82,92.35 119.50,98.22 119.50,98.22 C119.50,98.22 119.50,94.45 119.50,94.45 C119.50,94.45 119.08,99.27 119.08,99.27 C119.08,99.27 119.08,93.19 119.08,93.19 C119.08,93.19 118.95,96.08 118.95,96.08" fill="none" stroke="rgb(0, 0, 0)" stroke-width="2.10" stroke-opacity="1.00" stroke-linejoin="round"/>
<path d="M118.89,95.96 C118.89,95.96 119.50,92.46 119.50,92.46 C119.50,92.46 118.45,96.33 118.45,96.33" fill="none" stroke="rgb(0, 0, 0)" stroke-width="2.10" stroke-opacity="1.00" stroke-linejoin="round"/>
<path d="M119.18,98.64 C119.18,98.64 119.29,99.17 119.29,99.17 C119.29,99.17 118.98,96.13 118.98,96.13" fill="none" stroke="rgb(0, 0, 0)" stroke-width="2.10" stroke-opacity="1.00" stroke-linejoin="round"/>
<path d="M118.66,94.13 C118.66,94.13 118.87,92.98 118.87,92.98 C118.87,92.98 118.87,96.65 118.87,96.65" fill="none" stroke="rgb(0, 0, 0)" stroke-width="2.10" stroke-opacity="1.00" stroke-linejoin="round"/>
<path d="M119.19,99.17 C119.19,99.17 118.77,93.29 118.77,93.29 C118.77,93.29 119.82,93.09 119.82,93.09 C119.82,93.09 118.24,96.47 118.24,96.47" fill="none" stroke="rgb(0, 0, 0)" stroke-width="2.10" stroke-opacity="1.00" stroke-linejoin="round"/>
<path d="M119.08,96.96 C119.08,96.96 119.92,91.62 119.92,91.62 C119.92,91.62 118.87,96.23 118.87,96.23" fill="none" stroke="rgb(0, 0, 0)" stroke-width="2.10" stroke-opacity="1.00" stroke-linejoin="round"/>
<path d="M119.02,95.65 C119.02,95.65 121.49,91.72 121.49,91.72 C121.67,93.24 120.67,93.91 119.19,94.13 C119.01,94.16 118.80,94.16 118.56,94.13 C118.51,93.91 118.80,93.53 119.61,92.77 C119.64,92.74 119.75,92.64 119.71,92.67" fill="none" stroke="rgb(0, 0, 0)" stroke-width="2.10" stroke-opacity="1.00" stroke-linejoin="round"/>
<path d="M119.23,96.34 C119.29,96.28 119.17,95.11 119.23,94.09 C119.26,93.68 120.20,92.53 120.25,92.20 C120.25,92.20 119.54,95.51 119.54,95.51 C119.54,95.51 120.13,92.28 120.13,92.28 C120.13,92.28 118.99,96.02 118.99,96.02" fill="none" stroke="rgb(0, 0, 0)" stroke-width="2.10" stroke-opacity="1.00" stroke-linejoin="round"/>
<path d="M119.11,96.34 C119.11,96.34 119.74,92.32 119.74,92.32 C118.47,94.34 119.29,97.56 119.42,97.87 C119.42,97.87 119.50,93.81 119.50,93.81 C119.50,93.81 120.33,99.45 120.33,99.45 C120.33,99.45 120.17,96.69 120.17,96.69" fill="none" stroke="rgb(0, 0, 0)" stroke-width="2.10" stroke-opacity="1.00" stroke-linejoin="round"/>
<path d="M123.23,100.17 C123.23,100.17 123.56,100.09 123.56,100.09 C123.56,100.09 121.56,99.84 121.56,99.84 C121.56,99.84 126.18,99.93 126.18,99.93 C126.18,99.93 123.31,100.09 123.31,100.09 C123.31,100.09 127.69,100.05 127.69,100.05 C127.69,100.05 123.48,100.01 123.48,100.01 C123.48,100.01 127.69,100.66 127.69,100.66 C127.69,100.66 124.13,100.13 124.13,100.13 C124.13,100.13 127.44,100.46 127.44,100.46 C127.38,100.50 125.97,100.50 125.07,100.50 C124.81,100.50 124.55,100.50 124.29,100.50" fill="none" stroke="rgb(0, 0, 0)" stroke-width="2.10" stroke-opacity="1.00" stroke-linejoin="round"/>
<path d="M120.61,98.21 C120.66,97.86 120.73,96.98 120.57,95.67 C120.51,95.17 120.46,94.78 120.41,94.49 C120.39,94.34 120.34,94.13 120.29,93.88" fill="none" stroke="rgb(0, 0, 0)" stroke-width="2.10" stroke-opacity="1.00" stroke-linejoin="round"/>
<path d="M162.05,181.45 C162.05,181.45 162.13,181.45 162.13,181.45 C162.13,181.45 162.56,184.94 162.56,184.94 C162.56,184.94 161.44,181.11 161.44,181.11 C161.44,181.11 162.22,185.42 162.22,185.42 C162.22,185.42 162.05,182.23 162.05,182.23 C162.05,182.23 161.87,184.94 161.87,184.94 C161.87,184.94 162.13,181.11 162.13,181.11 C162.13,181.11 162.87,186.58 162.87,186.58 C162.87,186.58 162.43,181.49 162.43,181.49 C162.43,181.49 163.51,188.39 163.51,188.39 C163.51,188.39 162.99,182.70 162.99,182.70 C162.99,182.70 163.51,194.04 163.51,194.04 C163.51,194.04 163.56,183.26 163.56,183.26 C163.56,183.26 164.03,195.46 164.03,195.46 C164.03,195.46 164.03,183.82 164.03,183.82 C164.03,183.82 164.25,188.57 164.25,188.57 C164.60,187.75 164.23,183.31 164.16,183.00 C164.14,182.91 164.06,182.65 163.94,182.23" fill="none" stroke="rgb(0, 0, 0)" stroke-width="2.10" stroke-opacity="1.00" stroke-linejoin="round"/>
<path d="M183.78,185.24 C183.78,185.24 184.17,184.68 184.17,184.68 C184.17,184.68 183.69,190.29 183.69,190.29 C183.69,190.29 183.78,184.90 183.78,184.90 C183.78,184.90 183.91,189.51 183.91,189.51 C183.91,189.51 184.04,184.73 184.04,184.73 C184.04,184.73 183.61,187.10 183.61,187.10 C183.61,187.10 183.78,183.00 183.78,183.00 C183.78,183.00 183.26,184.73 183.26,184.73 C183.26,184.73 183.52,182.18 183.52,182.18 C183.52,182.18 184.73,181.19 184.73,181.19 C184.73,181.19 182.40,183.26 182.40,183.26 C182.40,183.26 184.47,180.33 184.47,180.33 C184.47,180.33 182.23,183.35 182.23,183.35 C182.23,183.35 186.54,179.68 186.54,179.68 C186.54,179.68 186.02,180.59 186.02,180.59" fill="none" stroke="rgb(0, 0, 0)" stroke-width="2.10" stroke-opacity="1.00" stroke-linejoin="round"/>
<path d="M161.92,186.63 C161.92,186.63 162.33,186.49 162.33,186.49 C162.35,186.24 160.49,179.01 159.64,177.91 C159.05,177.18 156.85,175.37 156.70,174.86 C156.86,175.01 157.19,175.40 157.55,175.90 C157.90,176.39 158.11,176.67 158.18,176.76 C158.55,177.20 159.61,178.45 159.94,179.10 C161.57,182.33 163.33,187.94 163.14,188.93 C163.14,188.93 162.65,189.24 162.65,189.24" fill="none" stroke="rgb(0, 0, 0)" stroke-width="2.10" stroke-opacity="1.00" stroke-linejoin="round"/>
</g>
</svg>
